<svg width="13" height="13" viewBox="0 0 13 13" fill="none" xmlns="http://www.w3.org/2000/svg">
<path d="M12.25 3.25C12.25 4.69922 11.0742 5.875 9.625 5.875C8.83203 5.875 8.12109 5.54688 7.62891 4.97266L5.16797 6.20312C5.22266 6.39453 5.22266 6.58594 5.22266 6.75C5.22266 6.94141 5.22266 7.13281 5.16797 7.32422L7.62891 8.52734C8.12109 7.98047 8.83203 7.625 9.625 7.625C11.0742 7.625 12.25 8.80078 12.25 10.25C12.25 11.6992 11.0742 12.875 9.625 12.875C8.14844 12.875 7 11.6992 7 10.25C7 10.0859 7 9.89453 7.05469 9.70312L4.59375 8.47266C4.10156 9.04688 3.39062 9.375 2.625 9.375C1.14844 9.375 0 8.19922 0 6.75C0 5.30078 1.14844 4.125 2.625 4.125C3.39062 4.125 4.10156 4.48047 4.59375 5.02734L7.05469 3.82422C7 3.63281 7 3.44141 7 3.25C7 1.80078 8.14844 0.625 9.625 0.625C11.0742 0.625 12.25 1.80078 12.25 3.25ZM2.59766 8.0625C3.33594 8.0625 3.91016 7.48828 3.91016 6.75C3.91016 6.03906 3.33594 5.4375 2.59766 5.4375C1.88672 5.4375 1.28516 6.03906 1.28516 6.75C1.28516 7.48828 1.88672 8.0625 2.59766 8.0625ZM9.625 1.9375C8.88672 1.9375 8.3125 2.53906 8.3125 3.25C8.3125 3.98828 8.88672 4.5625 9.625 4.5625C10.3359 4.5625 10.9375 3.98828 10.9375 3.25C10.9375 2.53906 10.3359 1.9375 9.625 1.9375ZM9.625 11.5625C10.3359 11.5625 10.9375 10.9883 10.9375 10.25C10.9375 9.53906 10.3359 8.9375 9.625 8.9375C8.88672 8.9375 8.3125 9.53906 8.3125 10.25C8.3125 10.9883 8.88672 11.5625 9.625 11.5625Z" fill="#303439"/>
</svg>
