<svg width="48" height="48" viewBox="0 0 48 48" fill="none" xmlns="http://www.w3.org/2000/svg">
    <rect width="48" height="48" rx="24" fill="url(#paint0_linear_860_7166)" fill-opacity="0.2" />
    <path
        d="M15 13.5H33C33.7969 13.5 34.5 14.2031 34.5 15C34.5 15.8438 33.7969 16.5 33 16.5H15.75C15.3281 16.5 15 16.875 15 17.25C15 17.6719 15.3281 18 15.75 18H33C34.6406 18 36 19.3594 36 21V31.5C36 33.1875 34.6406 34.5 33 34.5H15C13.3125 34.5 12 33.1875 12 31.5V16.5C12 14.8594 13.3125 13.5 15 13.5ZM31.5 24.75C30.6562 24.75 30 25.4531 30 26.25C30 27.0938 30.6562 27.75 31.5 27.75C32.2969 27.75 33 27.0938 33 26.25C33 25.4531 32.2969 24.75 31.5 24.75Z"
        fill="url(#paint1_linear_860_7166)" />
    <defs>
        <linearGradient id="paint0_linear_860_7166" x1="0" y1="24" x2="48" y2="24" gradientUnits="userSpaceOnUse">
            <stop stop-color="#2193B0" />
            <stop offset="1" stop-color="#6DD5ED" />
        </linearGradient>
        <linearGradient id="paint1_linear_860_7166" x1="12" y1="24" x2="36" y2="24" gradientUnits="userSpaceOnUse">
            <stop stop-color="#2193B0" />
            <stop offset="1" stop-color="#6DD5ED" />
        </linearGradient>
    </defs>
</svg>